<svg xmlns="http://www.w3.org/2000/svg" viewBox="0 0 202.66 64"><defs><style>.cls-1{fill:#fff;}.cls-2{fill:#1da1f2;}</style></defs><g id="Layer_2" data-name="Layer 2"><path class="cls-1" d="M76.19,9.77V24.52h4.72v3.16H66.49V24.52h5.24V12.93H66.66V9.77ZM73.3.74a2.75,2.75,0,0,1,2,.76,2.58,2.58,0,0,1,.77,1.9,2.59,2.59,0,0,1-.77,1.9,3,3,0,0,1-4,0,2.56,2.56,0,0,1-.78-1.9,2.55,2.55,0,0,1,.78-1.9A2.75,2.75,0,0,1,73.3.74Z"/><path class="cls-1" d="M98.92,9.26a3.68,3.68,0,0,1,2,.49,3,3,0,0,1,1.25,1.6,8.45,8.45,0,0,1,.44,3.05V27.68H98.68V15a5.34,5.34,0,0,0-.19-1.72.83.83,0,0,0-.87-.51,2.25,2.25,0,0,0-1.13.33,4.15,4.15,0,0,0-1.17,1.17V27.68H92V15a5.34,5.34,0,0,0-.19-1.72.83.83,0,0,0-.87-.51,2.23,2.23,0,0,0-1.14.33,4.13,4.13,0,0,0-1.16,1.17V27.68H84.65V9.77H88l.29,1.86a7.34,7.34,0,0,1,1.67-1.74,3.54,3.54,0,0,1,2.11-.63,3.29,3.29,0,0,1,1.8.5A2.8,2.8,0,0,1,95,11.46a7.22,7.22,0,0,1,1.74-1.59A4.09,4.09,0,0,1,98.92,9.26Z"/><path class="cls-1" d="M120.77,23a2.86,2.86,0,0,0,.3,1.5,1.85,1.85,0,0,0,1,.7l-1,3a6.25,6.25,0,0,1-2.45-.72,3.66,3.66,0,0,1-1.54-1.7,6.2,6.2,0,0,1-2.56,1.85,9,9,0,0,1-3.24.61A6,6,0,0,1,107,26.63a5.38,5.38,0,0,1-1.61-4,5,5,0,0,1,2.25-4.41,11.1,11.1,0,0,1,6.35-1.54h2.5v-1a2.68,2.68,0,0,0-1-2.31,4.75,4.75,0,0,0-2.83-.71,12.89,12.89,0,0,0-2.15.22,18,18,0,0,0-2.67.71l-1.06-3.07a19.53,19.53,0,0,1,3.44-.94,17.71,17.71,0,0,1,3.15-.31c2.52,0,4.38.54,5.6,1.6a5.68,5.68,0,0,1,1.83,4.52Zm-8,2a4.3,4.3,0,0,0,2.06-.58,4.2,4.2,0,0,0,1.63-1.61V19.29h-1.76a6.24,6.24,0,0,0-3.59.8A2.59,2.59,0,0,0,110,22.33a2.55,2.55,0,0,0,.71,1.94A2.83,2.83,0,0,0,112.75,25Z"/><path class="cls-1" d="M142.21,7.25l1.11,3.48a9.83,9.83,0,0,1-2.28.5,25.15,25.15,0,0,1-2.91.15,6.22,6.22,0,0,1,2.5,1.8,4.39,4.39,0,0,1,.85,2.76,5.6,5.6,0,0,1-.89,3.11,5.93,5.93,0,0,1-2.52,2.15,8.92,8.92,0,0,1-3.88.78,9.08,9.08,0,0,1-1.23-.07c-.36,0-.71-.11-1.05-.18a1.26,1.26,0,0,0-.53.54,1.57,1.57,0,0,0-.18.72,1.12,1.12,0,0,0,.4.87,2.64,2.64,0,0,0,1.71.37h3.05a8.39,8.39,0,0,1,3.47.67,5.56,5.56,0,0,1,2.33,1.8,4.24,4.24,0,0,1,.84,2.6,4.78,4.78,0,0,1-2.35,4.23c-1.57,1-3.85,1.52-6.86,1.52a15.13,15.13,0,0,1-5-.66,4.58,4.58,0,0,1-2.53-1.92,5.91,5.91,0,0,1-.73-3h4a2.69,2.69,0,0,0,.35,1.42,2.2,2.2,0,0,0,1.3.83,10.7,10.7,0,0,0,2.75.27,11,11,0,0,0,2.82-.29,2.74,2.74,0,0,0,1.44-.82,2,2,0,0,0,.42-1.24,1.71,1.71,0,0,0-.81-1.51,4.14,4.14,0,0,0-2.3-.54h-3a6,6,0,0,1-3.94-1.06,3.14,3.14,0,0,1-1.23-2.44,3.47,3.47,0,0,1,.52-1.82,4.42,4.42,0,0,1,1.47-1.48,5.94,5.94,0,0,1-2.39-2.1,5.69,5.69,0,0,1-.73-3,5.8,5.8,0,0,1,1-3.38,6.33,6.33,0,0,1,2.72-2.23,9.57,9.57,0,0,1,4-.8A19.2,19.2,0,0,0,137.43,9,12.39,12.39,0,0,0,140,8.28C140.77,8,141.5,7.62,142.21,7.25Zm-8.24,5a3.11,3.11,0,0,0-2.43.93,3.58,3.58,0,0,0-.83,2.47,3.57,3.57,0,0,0,.86,2.51,3.14,3.14,0,0,0,2.42.93,3,3,0,0,0,2.34-.9,3.77,3.77,0,0,0,.8-2.6,3.5,3.5,0,0,0-.8-2.52A3.15,3.15,0,0,0,134,12.26Z"/><path class="cls-1" d="M150.86,20.09a6.25,6.25,0,0,0,.77,2.72,4,4,0,0,0,1.63,1.54,5.09,5.09,0,0,0,2.22.49,7.15,7.15,0,0,0,2.42-.41,10.64,10.64,0,0,0,2.23-1.13L162,25.85a10,10,0,0,1-3,1.69,10.9,10.9,0,0,1-3.82.65A9.28,9.28,0,0,1,150.3,27a7.57,7.57,0,0,1-3-3.33,11.21,11.21,0,0,1-1-4.9,11.23,11.23,0,0,1,1-4.82,8.12,8.12,0,0,1,2.87-3.41,8.84,8.84,0,0,1,8.8-.17,7.16,7.16,0,0,1,2.77,3.1,11.11,11.11,0,0,1,1,4.86q0,.45,0,.93c0,.32,0,.6,0,.85Zm3.84-7.68A3.39,3.39,0,0,0,152,13.57a6.13,6.13,0,0,0-1.23,3.66h7.54a6.21,6.21,0,0,0-.93-3.54A3.1,3.1,0,0,0,154.7,12.41Z"/><path class="cls-1" d="M82.21,36.11l1.11,3.48a9.94,9.94,0,0,1-2.28.5,25.32,25.32,0,0,1-2.91.14A6.33,6.33,0,0,1,80.63,42a4.37,4.37,0,0,1,.85,2.76,5.6,5.6,0,0,1-.89,3.11,6,6,0,0,1-2.52,2.15,8.92,8.92,0,0,1-3.88.78A11.06,11.06,0,0,1,73,50.77c-.36-.05-.71-.11-1-.19a1.38,1.38,0,0,0-.53.54,1.61,1.61,0,0,0-.18.73,1.12,1.12,0,0,0,.4.87,2.71,2.71,0,0,0,1.71.37h3a8.56,8.56,0,0,1,3.47.66,5.72,5.72,0,0,1,2.33,1.8A4.29,4.29,0,0,1,83,58.16a4.78,4.78,0,0,1-2.35,4.23q-2.36,1.52-6.86,1.52a15.24,15.24,0,0,1-5-.66,4.55,4.55,0,0,1-2.52-1.92,5.93,5.93,0,0,1-.73-3h4a2.64,2.64,0,0,0,.35,1.42,2.09,2.09,0,0,0,1.3.83,10.7,10.7,0,0,0,2.75.27,11.09,11.09,0,0,0,2.82-.28,2.81,2.81,0,0,0,1.44-.82,2,2,0,0,0,.42-1.25,1.71,1.71,0,0,0-.81-1.5,4.14,4.14,0,0,0-2.3-.54h-3a6,6,0,0,1-3.94-1.06,3.14,3.14,0,0,1-1.23-2.44,3.56,3.56,0,0,1,.51-1.82,4.55,4.55,0,0,1,1.48-1.48,6,6,0,0,1-2.39-2.11,5.63,5.63,0,0,1-.73-3,5.83,5.83,0,0,1,1-3.39,6.48,6.48,0,0,1,2.72-2.23,9.57,9.57,0,0,1,4-.79,19.11,19.11,0,0,0,3.54-.26A12.41,12.41,0,0,0,80,37.14C80.77,36.82,81.5,36.48,82.21,36.11Zm-8.24,5a3.11,3.11,0,0,0-2.43.93,4.11,4.11,0,0,0,0,5A3.14,3.14,0,0,0,74,48a3,3,0,0,0,2.34-.9,3.78,3.78,0,0,0,.8-2.6,3.48,3.48,0,0,0-.8-2.52A3.15,3.15,0,0,0,74,41.11Z"/><path class="cls-1" d="M101.35,51.82a2.84,2.84,0,0,0,.3,1.49,1.86,1.86,0,0,0,1,.71l-1,3a6.2,6.2,0,0,1-2.44-.72,3.67,3.67,0,0,1-1.55-1.7,6.18,6.18,0,0,1-2.56,1.84,8.68,8.68,0,0,1-3.24.61,6,6,0,0,1-4.35-1.55,5.39,5.39,0,0,1-1.6-4A5,5,0,0,1,88.17,47a11.09,11.09,0,0,1,6.35-1.55H97v-1a2.68,2.68,0,0,0-1-2.31,4.75,4.75,0,0,0-2.83-.72,13,13,0,0,0-2.15.23,18.21,18.21,0,0,0-2.67.7l-1.06-3.06a19.57,19.57,0,0,1,3.44-.95,18.7,18.7,0,0,1,3.15-.3c2.52,0,4.38.53,5.6,1.6a5.67,5.67,0,0,1,1.83,4.52Zm-8,2A4.4,4.4,0,0,0,97,51.63V48.15H95.26a6.25,6.25,0,0,0-3.59.79,2.91,2.91,0,0,0-.4,4.19A2.87,2.87,0,0,0,93.33,53.81Z"/><path class="cls-1" d="M115.87,31.48V51.33a1.88,1.88,0,0,0,.69,1.65,3.08,3.08,0,0,0,1.85.49,5.89,5.89,0,0,0,1.4-.16,10.2,10.2,0,0,0,1.29-.39l1.1,3a11.54,11.54,0,0,1-2.06.75,10.65,10.65,0,0,1-2.8.33,5.68,5.68,0,0,1-4.43-1.67,6.53,6.53,0,0,1-1.5-4.52V34.64h-5.36V31.48Z"/><path class="cls-1" d="M132.78,33.89V51.33a1.87,1.87,0,0,0,.68,1.65,3.1,3.1,0,0,0,1.85.49,6,6,0,0,0,1.41-.16,10,10,0,0,0,1.28-.39l1.1,3a11.41,11.41,0,0,1-2,.75,10.76,10.76,0,0,1-2.8.33,5.7,5.7,0,0,1-4.44-1.67,6.53,6.53,0,0,1-1.5-4.52v-18Z"/><path class="cls-1" d="M148.35,48.94a6.25,6.25,0,0,0,.77,2.73,3.86,3.86,0,0,0,1.63,1.53,4.89,4.89,0,0,0,2.22.49,7.09,7.09,0,0,0,2.41-.4,10.4,10.4,0,0,0,2.23-1.13l1.86,2.55a10,10,0,0,1-3,1.69,10.88,10.88,0,0,1-3.81.64,9.34,9.34,0,0,1-4.9-1.2,7.69,7.69,0,0,1-3-3.33,11.2,11.2,0,0,1-1-4.9,11.38,11.38,0,0,1,1-4.82,8.21,8.21,0,0,1,2.88-3.41,7.93,7.93,0,0,1,4.53-1.26,8.1,8.1,0,0,1,4.26,1.08,7.12,7.12,0,0,1,2.77,3.11,10.91,10.91,0,0,1,1,4.86c0,.3,0,.61,0,.93s0,.6-.06.84Zm3.84-7.67a3.43,3.43,0,0,0-2.67,1.15,6.12,6.12,0,0,0-1.22,3.66h7.54a6.2,6.2,0,0,0-.94-3.54A3.1,3.1,0,0,0,152.19,41.27Z"/><path class="cls-1" d="M165,56.54v-3.1h2.52V41.71H165V38.63h5.92l.83,4.11a8.4,8.4,0,0,1,2.47-3.44A5.86,5.86,0,0,1,178,38.14a7.69,7.69,0,0,1,1.52.13,8.28,8.28,0,0,1,1.28.36l-1.33,3.75c-.35-.09-.69-.16-1-.21a6.87,6.87,0,0,0-1.07-.08,4.32,4.32,0,0,0-3.23,1.45A9.6,9.6,0,0,0,172,47.46v6h3.56v3.1Zm12-10.93V40.86l.61-2.23h3.16l-.79,7Z"/><path class="cls-1" d="M201.34,38.63l-6.07,17.94a13.5,13.5,0,0,1-1.93,3.77,8.48,8.48,0,0,1-3,2.49A11.08,11.08,0,0,1,186,63.92l-.56-3.22a10.38,10.38,0,0,0,2.9-.77A4.58,4.58,0,0,0,190,58.6a7.84,7.84,0,0,0,1.12-2.06h-1.52l-5.87-17.91h4.72l4.06,14.93,4.23-14.93Z"/><path class="cls-2" d="M40.29,21.45V50.8a11,11,0,0,1-5.41,9.7Q29.46,64,19.08,64q-7.44,0-11.59-1.52a10.54,10.54,0,0,1-5.82-4.42,13.79,13.79,0,0,1-1.67-7H9.15a6,6,0,0,0,.8,3.27,4.91,4.91,0,0,0,3,1.9,24.35,24.35,0,0,0,6.33.63,24.55,24.55,0,0,0,6.48-.67,6.35,6.35,0,0,0,3.33-1.88,4.46,4.46,0,0,0,1-2.86A4,4,0,0,0,28.19,48a9.55,9.55,0,0,0-5.3-1.24H16.08c-4.15,0-7.18-.82-9.07-2.44A7.22,7.22,0,0,1,4.17,38.7a8.11,8.11,0,0,1,1.18-4.19,10.17,10.17,0,0,1,3.41-3.4l6,2.21a3,3,0,0,0-1.2,1.25,3.52,3.52,0,0,0-.43,1.67,2.63,2.63,0,0,0,.91,2q.92.84,4,.84h7a21,21,0,0,1,5.66.71L30.59,29h-11v-5.6l6.12-1.06a58.07,58.07,0,0,1,9.93-.86Z"/><path class="cls-2" d="M28.64,10.83a6.09,6.09,0,0,1-1.85-4.52,6,6,0,0,1,1.85-4.5A6.52,6.52,0,0,1,33.42,0a6.47,6.47,0,0,1,4.76,1.81A6.05,6.05,0,0,1,40,6.31a6.15,6.15,0,0,1-1.83,4.52,6.44,6.44,0,0,1-4.76,1.82A6.48,6.48,0,0,1,28.64,10.83Z"/></g></svg>