<svg id="Layer_1" data-name="Layer 1" xmlns="http://www.w3.org/2000/svg" viewBox="0 0 64 64"><defs><style>.cls-1{fill:#1da1f2;}</style></defs><path class="cls-1" d="M51.14,21.45V50.8a11,11,0,0,1-5.4,9.7Q40.33,64,29.94,64q-7.44,0-11.59-1.52a10.53,10.53,0,0,1-5.83-4.42,13.89,13.89,0,0,1-1.66-7H20a6,6,0,0,0,.8,3.27,4.85,4.85,0,0,0,3,1.9,24.3,24.3,0,0,0,6.33.63,24.55,24.55,0,0,0,6.48-.67,6.35,6.35,0,0,0,3.33-1.88,4.51,4.51,0,0,0,1-2.86A3.94,3.94,0,0,0,39.05,48a9.57,9.57,0,0,0-5.3-1.24H26.94c-4.15,0-7.18-.82-9.07-2.44A7.21,7.21,0,0,1,15,38.7a8.21,8.21,0,0,1,1.18-4.19,10.29,10.29,0,0,1,3.42-3.4l6,2.21a3.1,3.1,0,0,0-1.21,1.25A3.63,3.63,0,0,0,24,36.24a2.6,2.6,0,0,0,.91,2q.91.84,4,.84h7a21,21,0,0,1,5.66.71L41.45,29h-11v-5.6l6.12-1.06a58,58,0,0,1,9.93-.86Z"/><path class="cls-1" d="M39.5,10.83a6.1,6.1,0,0,1-1.86-4.52,6,6,0,0,1,1.86-4.5A6.51,6.51,0,0,1,44.27,0,6.48,6.48,0,0,1,49,1.81a6.05,6.05,0,0,1,1.83,4.5A6.15,6.15,0,0,1,49,10.83a6.45,6.45,0,0,1-4.77,1.82A6.48,6.48,0,0,1,39.5,10.83Z"/></svg>